<svg width="41" height="18" viewBox="0 0 41 18" fill="none" xmlns="http://www.w3.org/2000/svg">
<path fill-rule="evenodd" clip-rule="evenodd" d="M8.26553 0C6.9422 0 5.70452 0.654489 4.95956 1.74821L0.950042 7.6348C0.49879 8.29731 0.486689 9.16524 0.919297 9.84007L4.96996 16.1587C5.70548 17.3061 6.97456 18 8.33742 18H38.9872C40.0917 18 40.9872 17.1046 40.9872 16V2C40.9872 0.895431 40.0918 0 38.9872 0H8.26553ZM4.5 10C5.32843 10 6 9.32843 6 8.5C6 7.67157 5.32843 7 4.5 7C3.67157 7 3 7.67157 3 8.5C3 9.32843 3.67157 10 4.5 10Z" fill="url(#paint0_linear)"/>
<path d="M14.2803 8.144C14.2803 8.44267 14.2083 8.72267 14.0642 8.984C13.9256 9.24533 13.7043 9.456 13.4003 9.616C13.1016 9.776 12.7229 9.856 12.2643 9.856H11.3283V12H10.2083V6.416H12.2643C12.6963 6.416 13.0643 6.49067 13.3683 6.64C13.6723 6.78933 13.8989 6.99467 14.0483 7.256C14.2029 7.51733 14.2803 7.81333 14.2803 8.144ZM12.2163 8.952C12.5256 8.952 12.7549 8.88267 12.9043 8.744C13.0536 8.6 13.1283 8.4 13.1283 8.144C13.1283 7.6 12.8243 7.328 12.2163 7.328H11.3283V8.952H12.2163ZM16.1954 8.256C16.3394 8.02133 16.5261 7.83733 16.7554 7.704C16.9901 7.57067 17.2568 7.504 17.5554 7.504V8.68H17.2594C16.9074 8.68 16.6408 8.76267 16.4594 8.928C16.2834 9.09333 16.1954 9.38133 16.1954 9.792V12H15.0754V7.568H16.1954V8.256ZM20.2778 12.072C19.8511 12.072 19.4671 11.9787 19.1258 11.792C18.7845 11.6 18.5151 11.3307 18.3178 10.984C18.1258 10.6373 18.0298 10.2373 18.0298 9.784C18.0298 9.33067 18.1285 8.93067 18.3258 8.584C18.5285 8.23733 18.8031 7.97067 19.1498 7.784C19.4965 7.592 19.8831 7.496 20.3098 7.496C20.7365 7.496 21.1231 7.592 21.4698 7.784C21.8165 7.97067 22.0885 8.23733 22.2858 8.584C22.4885 8.93067 22.5898 9.33067 22.5898 9.784C22.5898 10.2373 22.4858 10.6373 22.2778 10.984C22.0751 11.3307 21.7978 11.6 21.4458 11.792C21.0991 11.9787 20.7098 12.072 20.2778 12.072ZM20.2778 11.096C20.4805 11.096 20.6698 11.048 20.8458 10.952C21.0271 10.8507 21.1711 10.7013 21.2778 10.504C21.3845 10.3067 21.4378 10.0667 21.4378 9.784C21.4378 9.36267 21.3258 9.04 21.1018 8.816C20.8831 8.58667 20.6138 8.472 20.2938 8.472C19.9738 8.472 19.7045 8.58667 19.4858 8.816C19.2725 9.04 19.1658 9.36267 19.1658 9.784C19.1658 10.2053 19.2698 10.5307 19.4778 10.76C19.6911 10.984 19.9578 11.096 20.2778 11.096ZM28.9154 7.504C29.4594 7.504 29.8967 7.672 30.2274 8.008C30.5634 8.33867 30.7314 8.80267 30.7314 9.4V12H29.6114V9.552C29.6114 9.20533 29.5234 8.94133 29.3474 8.76C29.1714 8.57333 28.9314 8.48 28.6274 8.48C28.3234 8.48 28.0807 8.57333 27.8994 8.76C27.7234 8.94133 27.6354 9.20533 27.6354 9.552V12H26.5154V9.552C26.5154 9.20533 26.4274 8.94133 26.2514 8.76C26.0754 8.57333 25.8354 8.48 25.5314 8.48C25.222 8.48 24.9767 8.57333 24.7954 8.76C24.6194 8.94133 24.5314 9.20533 24.5314 9.552V12H23.4114V7.568H24.5314V8.104C24.6754 7.91733 24.8594 7.77067 25.0834 7.664C25.3127 7.55733 25.5634 7.504 25.8354 7.504C26.182 7.504 26.4914 7.57867 26.7634 7.728C27.0354 7.872 27.246 8.08 27.3954 8.352C27.5394 8.096 27.7474 7.89067 28.0194 7.736C28.2967 7.58133 28.5954 7.504 28.9154 7.504ZM33.7622 12.072C33.3355 12.072 32.9515 11.9787 32.6102 11.792C32.2689 11.6 31.9995 11.3307 31.8022 10.984C31.6102 10.6373 31.5142 10.2373 31.5142 9.784C31.5142 9.33067 31.6129 8.93067 31.8102 8.584C32.0129 8.23733 32.2875 7.97067 32.6342 7.784C32.9809 7.592 33.3675 7.496 33.7942 7.496C34.2209 7.496 34.6075 7.592 34.9542 7.784C35.3009 7.97067 35.5729 8.23733 35.7702 8.584C35.9729 8.93067 36.0742 9.33067 36.0742 9.784C36.0742 10.2373 35.9702 10.6373 35.7622 10.984C35.5595 11.3307 35.2822 11.6 34.9302 11.792C34.5835 11.9787 34.1942 12.072 33.7622 12.072ZM33.7622 11.096C33.9649 11.096 34.1542 11.048 34.3302 10.952C34.5115 10.8507 34.6555 10.7013 34.7622 10.504C34.8689 10.3067 34.9222 10.0667 34.9222 9.784C34.9222 9.36267 34.8102 9.04 34.5862 8.816C34.3675 8.58667 34.0982 8.472 33.7782 8.472C33.4582 8.472 33.1889 8.58667 32.9702 8.816C32.7569 9.04 32.6502 9.36267 32.6502 9.784C32.6502 10.2053 32.7542 10.5307 32.9622 10.76C33.1755 10.984 33.4422 11.096 33.7622 11.096Z" fill="white"/>
<defs>
<linearGradient id="paint0_linear" x1="1.00403" y1="9" x2="50.9999" y2="9.0701" gradientUnits="userSpaceOnUse">
<stop stop-color="#DE2828"/>
<stop offset="1" stop-color="#FF4747"/>
</linearGradient>
</defs>
</svg>
